<svg width="42" height="20" viewBox="0 0 42 20" fill="none" xmlns="http://www.w3.org/2000/svg">
<path d="M42 14.4884C42 17.5323 39.4727 20.0001 36.3551 20.0001C33.2379 20.0001 30.7102 17.5323 30.7102 14.4884C30.7102 14.1323 30.7447 13.7839 30.8111 13.4469H11.1887C11.2548 13.7839 11.2894 14.1323 11.2894 14.4884C11.2894 17.5323 8.76217 20.0001 5.64457 20.0001C2.52727 20.0001 0 17.5323 0 14.4884C0 12.6372 0.934302 10.9993 2.3677 10.0003C0.934302 9.00046 0 7.36267 0 5.51178C0 2.46757 2.52727 9.15527e-05 5.64457 9.15527e-05C8.76217 9.15527e-05 11.2894 2.46757 11.2894 5.51178C11.2894 5.86789 11.2548 6.21595 11.1887 6.55292H30.8111C30.7447 6.21595 30.7102 5.86789 30.7102 5.51178C30.7102 2.46757 33.2379 9.15527e-05 36.3551 9.15527e-05C39.4727 9.15527e-05 42 2.46757 42 5.51178C42 7.36267 41.0653 9.00046 39.6321 10.0003C41.0653 10.9993 42 12.6372 42 14.4884Z" fill="#4F4739"/>
</svg>
