<svg width="37" height="34" viewBox="0 0 37 34" fill="none" xmlns="http://www.w3.org/2000/svg">
<path d="M37 13.3009C37 12.7486 36.5523 12.3009 36 12.3009H14.3047C13.7524 12.3009 13.3047 12.7486 13.3047 13.3009V27.5919C13.3047 28.1442 13.7524 28.5919 14.3047 28.5919H30.2862C30.5402 28.5919 30.7848 28.6886 30.9701 28.8624L35.316 32.9369C35.9547 33.5357 37 33.0828 37 32.2074V13.3009Z" fill="url(#paint0_linear_122_75)"/>
<path d="M3.70711 31.1952L2.64645 30.1346L3.70711 31.1952ZM9.94734 24.955L8.88668 23.8943L9.94734 24.955ZM3 2V3.5H31.9014V2V0.5H3V2ZM32.9014 3H31.4014V23.6621H32.9014H34.4014V3H32.9014ZM31.9014 24.6621V23.1621H10.6544V24.6621V26.1621H31.9014V24.6621ZM9.94734 24.955L8.88668 23.8943L2.64645 30.1346L3.70711 31.1952L4.76777 32.2559L11.008 26.0157L9.94734 24.955ZM2 30.4881H3.5V3H2H0.5V30.4881H2ZM3.70711 31.1952L2.64645 30.1346C2.96143 29.8196 3.5 30.0427 3.5 30.4881H2H0.5C0.5 32.7154 3.19286 33.8308 4.76777 32.2559L3.70711 31.1952ZM10.6544 24.6621V23.1621C9.99141 23.1621 9.35552 23.4255 8.88668 23.8943L9.94734 24.955L11.008 26.0157C10.9142 26.1094 10.7871 26.1621 10.6544 26.1621V24.6621ZM32.9014 23.6621H31.4014C31.4014 23.386 31.6252 23.1621 31.9014 23.1621V24.6621V26.1621C33.2821 26.1621 34.4014 25.0428 34.4014 23.6621H32.9014ZM31.9014 2V3.5C31.6252 3.5 31.4014 3.27614 31.4014 3H32.9014H34.4014C34.4014 1.61929 33.2821 0.5 31.9014 0.5V2ZM3 2V0.5C1.61929 0.5 0.5 1.61929 0.5 3H2H3.5C3.5 3.27614 3.27614 3.5 3 3.5V2Z" fill="#4F4739"/>
<defs>
<linearGradient id="paint0_linear_122_75" x1="25.1523" y1="12.3009" x2="25.1523" y2="33.2094" gradientUnits="userSpaceOnUse">
<stop stop-color="#FF810B"/>
<stop offset="0.895" stop-color="#FFCD9F"/>
<stop offset="1" stop-color="white"/>
</linearGradient>
</defs>
</svg>
