<svg width="9" height="13" viewBox="0 0 9 13" fill="none" xmlns="http://www.w3.org/2000/svg">
<path fill-rule="evenodd" clip-rule="evenodd" d="M2.51005 0.291755C2.85039 0.14957 3.21557 0.076355 3.58442 0.076355C3.95326 0.076355 4.31845 0.14957 4.65879 0.291755C4.99913 0.43394 5.30786 0.642267 5.56709 0.90466C5.82632 1.16705 6.03089 1.47829 6.16893 1.82033C6.30658 2.16138 6.37536 2.5263 6.37132 2.89403L6.367 9.15562L6.36694 9.15963C6.35922 9.64832 6.15967 10.1144 5.81135 10.4572C5.46304 10.8001 4.99389 10.9923 4.50514 10.9923C4.01639 10.9923 3.54724 10.8001 3.19892 10.4572C2.85061 10.1144 2.65106 9.64832 2.64334 9.15963L2.64327 9.15544V4.37497C2.64327 4.08157 2.88112 3.84372 3.17452 3.84372C3.46793 3.84372 3.70577 4.08157 3.70577 4.37497V9.14652C3.71002 9.35502 3.79558 9.55366 3.94427 9.70002C4.09383 9.84724 4.29528 9.92975 4.50514 9.92975C4.715 9.92975 4.91645 9.84724 5.06601 9.70002C5.21474 9.55363 5.3003 9.35492 5.30451 9.14637L5.30882 2.88739L5.30886 2.88435C5.31163 2.65613 5.26907 2.42963 5.18365 2.21799C5.09823 2.00634 4.97165 1.81375 4.81125 1.65139C4.65084 1.48903 4.45981 1.36012 4.24921 1.27214C4.03862 1.18416 3.81265 1.13885 3.58442 1.13885C3.35618 1.13885 3.13022 1.18416 2.91962 1.27214C2.70903 1.36012 2.51799 1.48903 2.35759 1.65139C2.19718 1.81375 2.0706 2.00634 1.98518 2.21799C1.89976 2.42963 1.8572 2.65613 1.85997 2.88435L1.86001 2.88757V9.19725L1.85996 9.2011C1.85489 9.55096 1.91943 9.89834 2.04982 10.223C2.1802 10.5477 2.37383 10.8433 2.61945 11.0925C2.86508 11.3417 3.15779 11.5396 3.48057 11.6747C3.80335 11.8097 4.14976 11.8793 4.49966 11.8793C4.84956 11.8793 5.19597 11.8097 5.51875 11.6747C5.84154 11.5396 6.13424 11.3417 6.37987 11.0925C6.62549 10.8433 6.81912 10.5477 6.9495 10.223C7.07989 9.89834 7.14443 9.55096 7.13936 9.2011L7.13931 9.19725V3.30384C7.13931 3.01044 7.37716 2.77259 7.67056 2.77259C7.96396 2.77259 8.20181 3.01044 8.20181 3.30384V9.18972C8.20836 9.67904 8.11785 10.1648 7.93548 10.619C7.75262 11.0744 7.48106 11.4888 7.13658 11.8383C6.79211 12.1878 6.38159 12.4654 5.9289 12.6548C5.47622 12.8442 4.99039 12.9418 4.49966 12.9418C4.00894 12.9418 3.52311 12.8442 3.07042 12.6548C2.61773 12.4654 2.20721 12.1878 1.86274 11.8383C1.51826 11.4888 1.2467 11.0744 1.06384 10.619C0.881473 10.1648 0.790958 9.67904 0.797512 9.18971V2.89385C0.793499 2.52617 0.862278 2.16133 0.999901 1.82033C1.13795 1.47829 1.34251 1.16705 1.60174 0.90466C1.86097 0.642267 2.1697 0.43394 2.51005 0.291755Z" fill="#3B3A36"/>
</svg>
