<svg width="35" height="43" viewBox="0 0 35 43" fill="none" xmlns="http://www.w3.org/2000/svg">
<path d="M9.82602 1.38802C12.9527 -0.552088 16.617 -0.397765 19.1991 1.47493C21.7722 0.234832 25.0479 0.922842 27.2782 3.41829C30.0525 6.5226 30.1578 11.2468 27.5135 13.97L19.6424 5.16341L6.16294 13.5296C3.96724 9.44209 5.60712 4.00599 9.82602 1.38802Z" fill="url(#paint0_linear_12034_15)"/>
<path d="M27.3485 12.08C27.3485 17.6829 22.8063 22.225 17.2033 22.225C11.6003 22.225 7.05811 17.6829 7.05811 12.08" stroke="#4F4739" stroke-width="3"/>
<path d="M17.2031 26.3259C21.385 26.3259 25.2916 27.4787 28.1855 29.8015C31.1152 32.1529 32.9062 35.6291 32.9062 39.9998V41.4998H1.5V39.9998C1.50008 35.6291 3.29119 32.1529 6.2207 29.8015C9.11464 27.4787 13.0213 26.326 17.2031 26.3259Z" stroke="#4F4739" stroke-width="3"/>
<defs>
<linearGradient id="paint0_linear_12034_15" x1="17.3092" y1="0.000244141" x2="17.3092" y2="13.97" gradientUnits="userSpaceOnUse">
<stop stop-color="#FF810B"/>
<stop offset="0.895" stop-color="#FFCD9F"/>
<stop offset="1" stop-color="white"/>
</linearGradient>
</defs>
</svg>
