<svg width="50" height="50" viewBox="0 0 50 50" fill="none" xmlns="http://www.w3.org/2000/svg">
<circle cx="25" cy="25" r="25" fill="#4F4739" fill-opacity="0.3"/>
<path d="M15.5155 34.2331C13.3562 35.4493 10.3933 34.354 8.89868 31.7874C6.95784 28.4553 6.92373 24.406 9.08361 23.1901C11.2429 21.9739 14.9191 24.2943 16.7188 27.384C18.2134 29.9506 17.6753 33.0168 15.5155 34.2331Z" fill="#4F4739"/>
<path d="M38.3185 38.2743C35.0478 39.553 33.2123 38.6597 31.1146 39.4791C29.0166 40.2991 28.2964 42.191 25.0255 43.4688C20.7435 45.1416 15.4954 41.2088 18.0088 36.2707C21.1326 30.1337 20.3654 24.2501 24.3896 22.6778C28.4141 21.1055 31.9272 25.9159 38.4542 28.2818C43.7063 30.1859 42.6001 36.6016 38.3185 38.2743Z" fill="#4F4739"/>
<path d="M22.6648 15.3364C21.6339 11.9217 22.4605 7.69271 24.8404 6.98447C27.2213 6.27654 30.1732 9.08946 31.2851 12.7724C32.1417 15.6096 30.9065 18.4841 28.526 19.1919C26.1457 19.9003 23.5215 18.1741 22.6648 15.3364Z" fill="#4F4739"/>
<path d="M12.5023 20.1111C10.7642 16.6728 10.9704 12.6257 13.1975 11.5343C15.4241 10.4419 18.9544 12.9684 20.5661 16.1564C21.9055 18.8053 21.186 21.8376 18.9594 22.9295C16.7325 24.0219 13.8418 22.76 12.5023 20.1111Z" fill="#4F4739"/>
<path d="M38.8625 25.1107C36.4453 25.6829 33.9298 23.8102 33.2434 20.9275C32.4176 17.4576 33.4936 13.2803 35.9104 12.7081C38.3277 12.1359 41.1061 15.1128 41.9968 18.8549C42.6825 21.7378 41.2794 24.5385 38.8625 25.1107Z" fill="#4F4739"/>
</svg>
