<svg width="43" height="44" viewBox="0 0 43 44" fill="none" xmlns="http://www.w3.org/2000/svg">
<path d="M11.5155 30.8273C9.35615 32.0435 6.39334 30.9482 4.89868 28.3816C2.95784 25.0495 2.92373 21.0002 5.08361 19.7843C7.24291 18.5682 10.9191 20.8885 12.7188 23.9782C14.2134 26.5448 13.6753 29.6111 11.5155 30.8273Z" fill="#4F4739"/>
<path d="M34.3185 34.8686C31.0478 36.1472 29.2123 35.254 27.1146 36.0734C25.0166 36.8933 24.2964 38.7852 21.0255 40.063C16.7435 41.7359 11.4954 37.8031 14.0088 32.8649C17.1326 26.7279 16.3654 20.8443 20.3896 19.2721C24.4141 17.6998 27.9272 22.5101 34.4542 24.8761C39.7063 26.7802 38.6001 33.1958 34.3185 34.8686Z" fill="#4F4739"/>
<path d="M18.6648 11.9306C17.6339 8.51596 18.4605 4.28699 20.8404 3.57875C23.2213 2.87081 26.1732 5.68373 27.2851 9.36663C28.1417 12.2039 26.9065 15.0784 24.526 15.7862C22.1457 16.4945 19.5215 14.7684 18.6648 11.9306Z" fill="#4F4739"/>
<path d="M8.50185 16.7054C6.76367 13.267 6.96992 9.21996 9.19705 8.12851C11.4236 7.03616 14.9539 9.56266 16.5656 12.7506C17.905 15.3995 17.1855 18.4319 14.9589 19.5237C12.732 20.6162 9.84129 19.3543 8.50185 16.7054Z" fill="#4F4739"/>
<path d="M34.862 21.705C32.4448 22.2772 29.9293 20.4044 29.2429 17.5218C28.4171 14.0519 29.4931 9.87459 31.9099 9.30242C34.3272 8.73017 37.1056 11.7071 37.9963 15.4492C38.682 18.332 37.2789 21.1328 34.862 21.705Z" fill="#4F4739"/>
</svg>
