<svg width="43" height="44" viewBox="0 0 43 44" fill="none" xmlns="http://www.w3.org/2000/svg">
<path d="M11.5121 30.8275C9.35273 32.0437 6.38992 30.9483 4.89526 28.3817C2.95443 25.0496 2.92031 21.0003 5.08019 19.7845C7.23949 18.5683 10.9157 20.8886 12.7153 23.9783C14.21 26.545 13.6719 29.6112 11.5121 30.8275Z" fill="white"/>
<path d="M34.3141 34.8687C31.0435 36.1474 29.2079 35.2541 27.1102 36.0735C25.0122 36.8935 24.292 38.7853 21.0211 40.0632C16.7391 41.736 11.491 37.8032 14.0045 32.865C17.1282 26.728 16.361 20.8444 20.3852 19.2722C24.4097 17.6999 27.9228 22.5102 34.4498 24.8762C39.7019 26.7803 38.5957 33.1959 34.3141 34.8687Z" fill="white"/>
<path d="M18.6604 11.9307C17.6295 8.51602 18.4561 4.28705 20.836 3.57881C23.2169 2.87088 26.1688 5.68379 27.2807 9.36669C28.1373 12.2039 26.9021 15.0784 24.5216 15.7863C22.1413 16.4946 19.5171 14.7685 18.6604 11.9307Z" fill="white"/>
<path d="M8.49843 16.7055C6.76025 13.2671 6.9665 9.22008 9.19364 8.12863C11.4202 7.03628 14.9505 9.56278 16.5622 12.7507C17.9015 15.3996 17.1821 18.432 14.9555 19.5238C12.7285 20.6163 9.83787 19.3544 8.49843 16.7055Z" fill="white"/>
<path d="M34.8581 21.705C32.4409 22.2773 29.9254 20.4045 29.239 17.5218C28.4132 14.052 29.4892 9.87465 31.906 9.30249C34.3233 8.73023 37.1017 11.7071 37.9924 15.4493C38.6781 18.3321 37.275 21.1328 34.8581 21.705Z" fill="white"/>
</svg>
