<svg width="139" height="140" viewBox="0 0 139 140" fill="none" xmlns="http://www.w3.org/2000/svg">
<path d="M37.7779 99.1828C30.6941 103.173 20.9745 99.5792 16.0712 91.159C9.70416 80.2277 9.59215 66.9433 16.6776 62.9546C23.7612 58.9648 35.8211 66.5771 41.725 76.7134C46.6284 85.1335 44.8631 95.1927 37.7779 99.1828Z" fill="#4F4739" fill-opacity="0.6"/>
<path d="M112.583 112.441C101.853 116.636 95.8316 113.705 88.9501 116.394C82.0675 119.084 79.7049 125.29 68.9748 129.482C54.9277 134.97 37.7108 122.068 45.9563 105.867C56.2036 85.7343 53.6868 66.4323 66.888 61.2746C80.0906 56.1165 91.6154 71.8975 113.028 79.6595C130.257 85.9063 126.628 106.954 112.583 112.441Z" fill="#4F4739" fill-opacity="0.6"/>
<path d="M61.2334 37.1897C57.8513 25.9874 60.563 12.1138 68.3703 9.79034C76.181 7.46793 85.8648 16.6962 89.5124 28.7784C92.3225 38.0864 88.2706 47.5165 80.4614 49.8386C72.6525 52.1623 64.0438 46.4994 61.2334 37.1897Z" fill="#4F4739" fill-opacity="0.6"/>
<path d="M27.8931 52.8539C22.1909 41.5738 22.8674 28.297 30.1736 24.7164C37.4777 21.1328 49.059 29.4214 54.3463 39.8799C58.7402 48.57 56.3801 58.5181 49.0757 62.1C41.7702 65.6838 32.2872 61.5439 27.8931 52.8539Z" fill="#4F4739" fill-opacity="0.6"/>
<path d="M114.37 69.2563C106.441 71.1336 98.1884 64.9897 95.9366 55.5327C93.2275 44.1493 96.7573 30.4451 104.686 28.5681C112.615 26.6908 121.73 36.457 124.652 48.7336C126.902 58.1911 122.299 67.3793 114.37 69.2563Z" fill="#4F4739" fill-opacity="0.6"/>
</svg>
